<svg xmlns="http://www.w3.org/2000/svg" version="1.1" xmlns:xlink="http://www.w3.org/1999/xlink" xmlns:svgjs="http://svgjs.dev/svgjs" width="300" height="250" preserveAspectRatio="none" viewBox="0 0 300 250"><g mask="url(&quot;#SvgjsMask1079&quot;)" fill="none"><rect width="300" height="250" x="0" y="0" fill="rgba(10, 191, 83, 1)"></rect><path d="M149.08 205.38 a76.79 76.79 0 1 0 153.58 0 a76.79 76.79 0 1 0 -153.58 0z" fill="rgba(25, 249, 115, 0.29)" class="triangle-float2"></path><path d="M87.99 199.63 a80.58 80.58 0 1 0 161.16 0 a80.58 80.58 0 1 0 -161.16 0z" fill="rgba(25, 249, 115, 0.29)" class="triangle-float1"></path><path d="M8.72 211.97 a61.15 61.15 0 1 0 122.3 0 a61.15 61.15 0 1 0 -122.3 0z" fill="rgba(25, 249, 115, 0.29)" class="triangle-float2"></path><path d="M202.12 1.3 a66.53 66.53 0 1 0 133.06 0 a66.53 66.53 0 1 0 -133.06 0z" fill="rgba(25, 249, 115, 0.29)" class="triangle-float1"></path></g><defs><mask id="SvgjsMask1079"><rect width="300" height="250" fill="#ffffff"></rect></mask><style>
                @keyframes float1 {
                    0%{transform: translate(0, 0)}
                    50%{transform: translate(-10px, 0)}
                    100%{transform: translate(0, 0)}
                }

                .triangle-float1 {
                    animation: float1 5s infinite;
                }

                @keyframes float2 {
                    0%{transform: translate(0, 0)}
                    50%{transform: translate(-5px, -5px)}
                    100%{transform: translate(0, 0)}
                }

                .triangle-float2 {
                    animation: float2 4s infinite;
                }

                @keyframes float3 {
                    0%{transform: translate(0, 0)}
                    50%{transform: translate(0, -10px)}
                    100%{transform: translate(0, 0)}
                }

                .triangle-float3 {
                    animation: float3 6s infinite;
                }
            </style></defs></svg>