<svg xmlns="http://www.w3.org/2000/svg" version="1.1" xmlns:xlink="http://www.w3.org/1999/xlink" xmlns:svgjs="http://svgjs.dev/svgjs" width="300" height="250" preserveAspectRatio="none" viewBox="0 0 300 250"><g mask="url(&quot;#SvgjsMask1086&quot;)" fill="none"><rect width="300" height="250" x="0" y="0" fill="rgba(111, 66, 193, 1)"></rect><path d="M219.7 51.26 a56.06 56.06 0 1 0 112.12 0 a56.06 56.06 0 1 0 -112.12 0z" fill="rgba(142, 81, 255, 0.52)" class="triangle-float1"></path><path d="M109.36 103.28 a55.65 55.65 0 1 0 111.3 0 a55.65 55.65 0 1 0 -111.3 0z" fill="rgba(142, 81, 255, 0.52)" class="triangle-float1"></path><path d="M29.83 19.93 a46.32 46.32 0 1 0 92.64 0 a46.32 46.32 0 1 0 -92.64 0z" fill="rgba(142, 81, 255, 0.52)" class="triangle-float1"></path><path d="M238.23 236.24 a42.36 42.36 0 1 0 84.72 0 a42.36 42.36 0 1 0 -84.72 0z" fill="rgba(142, 81, 255, 0.52)" class="triangle-float3"></path></g><defs><mask id="SvgjsMask1086"><rect width="300" height="250" fill="#ffffff"></rect></mask><style>
                @keyframes float1 {
                    0%{transform: translate(0, 0)}
                    50%{transform: translate(-10px, 0)}
                    100%{transform: translate(0, 0)}
                }

                .triangle-float1 {
                    animation: float1 5s infinite;
                }

                @keyframes float2 {
                    0%{transform: translate(0, 0)}
                    50%{transform: translate(-5px, -5px)}
                    100%{transform: translate(0, 0)}
                }

                .triangle-float2 {
                    animation: float2 4s infinite;
                }

                @keyframes float3 {
                    0%{transform: translate(0, 0)}
                    50%{transform: translate(0, -10px)}
                    100%{transform: translate(0, 0)}
                }

                .triangle-float3 {
                    animation: float3 6s infinite;
                }
            </style></defs></svg>